<?xml version="1.0" standalone="no"?>
<!DOCTYPE svg PUBLIC "-//W3C//DTD SVG 1.1//EN" "http://www.w3.org/Graphics/SVG/1.1/DTD/svg11.dtd">
<svg xmlns="http://www.w3.org/2000/svg">
<metadata>Generated by Fontastic.me</metadata>
<defs>
<font id="pi" horiz-adv-x="512">
<font-face font-family="pi" units-per-em="512" ascent="480" descent="-32"/>
<missing-glyph horiz-adv-x="512" />

<glyph unicode="&#97;" d="M256 16c-132 0-240 108-240 240 0 132 108 240 240 240 132 0 240-108 240-240 0-132-108-240-240-240z m0 466c-124 0-226-102-226-226 0-124 102-226 226-226 124 0 226 101 226 226 0 125-102 226-226 226z"/>
<glyph unicode="&#98;" d="M496 267c0 3-1 6-1 9 0 0 0 1 0 1-11 122-114 219-239 219-132 0-240-108-240-240 0-132 108-240 240-240 132 0 240 108 240 240 0 4 0 7 0 11z m-240-237c-124 0-226 102-226 226 0 124 102 226 226 226 118 0 215-91 225-206l-50-5c1-5 1-10 1-15l50 0c0-124-102-226-226-226z"/>
<glyph unicode="&#99;" d="M495 273c0 2 0 3 0 5 0 2-1 5-1 8 0 1 0 1 0 2-1 3-1 6-1 9 0 0 0 1 0 1-20 112-119 198-236 198-133 0-241-108-241-240 0-132 108-240 240-240 132 0 240 108 240 240 0 4 0 8 0 12-1 1-1 3-1 5z m-239-243c-124 0-226 102-226 226 0 124 102 226 226 226 111 0 204-81 222-186l-49-9c2-10 2-19 2-30l50 0c1-125-101-227-225-227z"/>
<glyph unicode="&#100;" d="M495 275c0 3 0 7-1 10 0 2 0 3-1 4 0 5-1 9-1 13 0 1 0 1 0 1-1 5-2 10-4 14 0 0 0 1 0 1-28 102-121 178-232 178-132 0-240-108-240-240 0-132 108-240 240-240 132 0 240 108 240 240 0 5 0 10-1 15 0 1 0 2 0 4z m-239-245c-124 0-226 102-226 226 0 124 102 226 226 226 104 0 192-71 218-167l-48-13c4-15 6-30 6-45l50 0c0-125-102-227-226-227z"/>
<glyph unicode="&#101;" d="M495 271c0 3 0 5 0 9 0 1 0 2-1 4 0 2-1 5-1 7 0 1-1 3-1 4 0 3 0 5-1 8 0 1-1 2-1 3 0 3-1 6-2 9 0 1 0 1 0 2-2 7-4 15-7 22-33 91-121 157-225 157-132 0-240-108-240-240 0-132 108-240 240-240 132 0 240 108 240 240 0 4 0 8 0 12-1 1-1 2-1 3z m-239-241c-124 0-226 102-226 226 0 124 102 226 226 226 97 0 180-62 212-149l-47-17c7-18 11-39 11-60l50 0c0-124-102-226-226-226z"/>
<glyph unicode="&#102;" d="M495 273c0 3 0 6 0 9 0 2-1 3-1 5-1 2-1 5-1 7 0 2-1 4-1 6 0 2 0 5-1 7-1 1-1 3-1 5-1 2-2 4-2 7-1 2-2 3-2 5 0 2-1 4-2 6 0 2-1 4-1 5-1 2-2 4-3 7-1 2-1 4-2 6-1 1-1 3-2 5-1 2-2 3-2 5-39 81-122 138-218 138-132 0-240-108-240-240 0-132 108-240 240-240 132 0 240 108 240 240 0 4 0 9-1 13 0 1 0 3 0 4z m-239-243c-124 0-226 102-226 226 0 124 102 226 226 226 90 0 168-53 205-131l-45-21c11-22 17-48 17-74l50 0c-1-124-103-226-227-226z"/>
<glyph unicode="&#103;" d="M495 275c0 4 0 7-1 10 0 2-1 4-1 5 0 4-1 8-1 13 0 0 0 0 0 1-1 4-2 9-4 14 0 1 0 3-1 4-1 3-2 6-3 10-1 1-1 2-1 4-2 4-3 7-4 11 0 1-1 1-1 2-2 5-4 9-6 13 0 1-1 2-2 3-1 3-2 6-4 9-1 0-1 2-1 2-43 71-120 120-209 120-132 0-240-108-240-240 0-132 108-240 240-240 132 0 240 108 240 240 0 5 0 10-1 15 0 1 0 2 0 4z m-239-245c-124 0-226 102-226 226 0 124 102 226 226 226 83 0 156-46 195-113l-43-25c15-25 24-55 24-87l50 0c0-125-102-227-226-227z"/>
<glyph unicode="&#104;" d="M495 271c0 2 0 5 0 8 0 1 0 3-1 3-1 3-1 6-1 9 0 1 0 1 0 2-1 4-1 7-2 11 0 1 0 1-1 2 0 3-1 6-2 9 0 1 0 2 0 2-1 4-2 6-3 9 0 0-1 1-1 2-1 7-4 14-7 21 0 0-1 1-1 2-1 3-2 5-4 9 0 0 0 0 0 1-4 7-7 13-11 20-2 3-4 6-6 9 0 0 0 1-1 1 0 1-1 2-2 3-43 62-115 103-196 103-132-1-240-109-240-241 0-132 108-240 240-240 132 0 240 108 240 240 0 4 0 8 0 11-1 1-1 2-1 4z m-239-241c-124 0-226 102-226 226 0 124 102 226 226 226 76 0 144-38 185-97l-41-29c20-28 32-63 32-101l50 0c0-123-102-225-226-225z"/>
<glyph unicode="&#105;" d="M496 268c0 1 0 2 0 3 0 3-1 5-1 9 0 1 0 2 0 4 0 2-1 5-2 7 0 1 0 3 0 4-1 3-1 5-1 8 0 1-1 2-1 3-1 2-1 5-2 8 0 1-1 2-1 3 0 3-2 6-2 9 0 0 0 1-1 1-9 31-25 59-45 83-44 53-110 86-184 86-132 0-240-108-240-240 0-132 108-240 240-240 132 0 240 108 240 240 0 4 0 8 0 12z m-240-238c-124 0-226 102-226 226 0 124 102 226 226 226 69 0 131-31 173-81l-38-32c26-30 41-69 41-113l50 0c0-124-102-226-226-226z"/>
<glyph unicode="&#106;" d="M426 426c-44 43-104 70-170 70-132 0-240-108-240-240 0-132 108-240 240-240 132 0 240 108 240 240 0 67-27 126-70 170z m-170-396c-124 0-226 102-226 226 0 124 102 226 226 226 62 0 118-26 159-66l-35-35c32-32 52-76 52-124l50 0c0-125-102-227-226-227z"/>
<glyph unicode="&#107;" d="M495 274c0 2 0 6 0 8 0 2-1 4-1 6 0 3-1 4-1 7-1 2-1 4-1 6-1 2-1 4-2 6 0 2-1 5-1 7-1 2-1 3-1 5-1 2-2 4-2 7-1 1-1 3-2 4 0 3-1 5-2 8-1 1-1 2-1 3-2 3-2 6-4 8 0 0 0 1 0 1-8 18-17 34-28 49-2 4-5 6-7 9 0 0-1 0-1 0-3 3-5 6-7 9 0 0-1 0-1 0-2 3-5 5-7 8 0 0 0 0-1 1-5 5-10 9-15 14-41 35-95 56-154 56-132 0-240-108-240-240 0-132 108-240 240-240 132 0 240 108 240 240 0 4 0 9-1 13 0 2 0 3 0 5z m-239-244c-124 0-226 102-226 226 0 124 102 226 226 226 55 0 106-20 145-53l-32-38c39-32 63-81 63-135l50 0c0-124-102-226-226-226z"/>
<glyph unicode="&#108;" d="M495 275c0 3 0 6 0 9 0 1-1 3-1 5-1 2-1 5-1 8 0 2-1 4-1 6-1 2-2 5-2 8-1 2-1 3-2 5-1 4-2 8-3 12-1 2-1 4-2 6 0 2-1 4-2 6 0 2-2 4-2 7-1 2-2 3-2 5-1 3-2 4-3 7-1 1-2 3-2 4-2 2-3 5-4 8-3 6-7 12-11 17-1 1-1 2-1 2-2 3-4 6-5 7-1 2-2 2-2 4-2 2-4 4-5 7-1 0-2 2-3 2-2 3-4 5-6 7 0 1-1 2-2 2-4 5-9 10-14 15-2 2-5 4-7 6-1 1-2 2-3 3-2 2-4 3-6 4-1 2-2 2-4 4-2 0-3 1-4 2-40 27-88 43-139 43-132 0-240-108-240-240 0-132 108-240 240-240 132 0 240 108 240 240 0 4 0 10-1 14 0 1 0 3 0 5z m-239-245c-124 0-226 102-226 226 0 124 102 226 226 226 48 0 93-15 129-41l-29-41c46-32 75-84 75-144l50 0c1-124-101-226-225-226z"/>
<glyph unicode="&#109;" d="M495 275c0 3 0 7-1 10 0 2-1 4-1 5 0 4-1 9-1 13 0 1-1 2-1 4-1 3-2 7-3 10 0 2-1 4-2 6 0 3-1 5-2 8-1 2-1 4-2 6-1 2-2 5-3 8-2 3-3 6-4 10-1 1-2 3-3 6-2 3-3 4-4 7 0 2-1 3-2 5-1 3-3 5-4 7-1 1-2 3-2 4-3 4-6 8-9 12-1 1-2 3-3 4-2 2-3 4-5 6-1 2-2 3-3 4-2 2-4 4-5 7-2 1-3 2-4 3-3 4-6 8-10 11-1 1-3 2-4 4-2 1-4 3-6 4-2 1-3 3-5 5-2 1-3 2-5 3-4 3-7 5-11 7-1 1-2 2-4 3-3 2-5 3-8 4 0 1-1 1-2 2-35 20-76 32-119 32-133 1-241-107-241-239 0-132 108-240 240-240 132 0 240 108 240 240 0 5 0 10-1 15 0 1 0 3 0 4z m-239-245c-124 0-226 102-226 226 0 124 102 226 226 226 41 0 79-11 113-30l-25-43c53-31 88-88 88-153l50 0c0-124-102-226-226-226z"/>
<glyph unicode="&#110;" d="M495 276c0 5 0 9-1 13 0 1 0 2-1 3 0 5-1 9-2 15-1 1-1 3-1 5-1 3-2 7-3 10-1 2-1 3-1 5-2 5-3 8-5 13 0 2-1 4-2 6-2 2-2 5-3 7-1 2-2 5-3 7-2 4-3 7-5 11-1 2-3 4-4 7-1 2-2 3-3 5-1 3-3 5-5 7-1 2-2 4-4 6-2 3-5 7-8 10-1 2-2 4-4 5-2 2-4 4-5 6-2 2-3 3-4 5-3 3-7 6-10 9-1 2-3 4-4 5-2 2-4 3-6 5-2 1-4 3-6 4-2 2-4 4-7 6-2 2-6 4-9 6-2 1-4 3-5 3-3 2-5 3-8 5-1 0-3 2-4 2-4 2-8 5-12 7-2-1-2 0-3 0-31 14-65 22-101 22-132 0-240-108-240-240 0-132 108-240 240-240 132 0 240 108 240 240 0 5 0 11-1 16 0 1 0 3 0 4z m-239-246c-124 0-226 102-226 226 0 124 102 226 226 226 34 0 67-8 95-21l-21-45c60-29 102-90 102-160l50 0c0-124-102-226-226-226z"/>
<glyph unicode="&#111;" d="M495 271c0 2 0 5 0 8 0 1 0 2-1 3-1 3-1 7-1 10 0 0 0 1 0 1-1 8-3 15-5 23 0 0 0 0 0 1 0 4-2 7-3 11-22 71-77 128-147 154-26 10-53 15-82 15-132-1-240-109-240-241 0-132 108-240 240-240 132 0 240 108 240 240 0 4 0 8 0 12-1 0-1 1-1 3z m-239-241c-124 0-226 102-226 226 0 124 102 226 226 226 27 0 53-5 77-14l-17-46c68-25 116-90 116-166l50 0c0-124-102-226-226-226z"/>
<glyph unicode="&#112;" d="M495 271c0 2 0 5 0 8 0 1 0 3-1 4 0 2-1 5-1 8 0 1 0 1-1 3 0 3-1 6-2 9 0 0 0 1 0 2-14 74-63 135-130 167 0 0-1 0-1 0-3 2-6 3-8 4-1 0-2 1-2 1-3 2-6 3-9 4-1 0-1 0-2 0-3 2-7 3-10 4-1 0-2 1-3 1-2 0-4 1-7 2-20 5-40 8-62 8-132 0-240-108-240-240 0-132 108-240 240-240 132 0 240 108 240 240 0 4 0 8 0 12-1 1-1 2-1 3z m-239-241c-124 0-226 102-226 226 0 124 102 226 226 226 20 0 40-3 58-8l-13-48c75-20 131-89 131-170l50 0c0-124-102-226-226-226z"/>
<glyph unicode="&#113;" d="M495 271c0 3 0 6 0 9 0 1 0 2-1 4 0 2-1 5-1 7 0 1-1 3-1 4 0 3 0 5-1 8 0 1-1 2-1 3 0 2-1 6-2 8 0 1 0 2 0 3-1 3-2 6-3 9 0 1 0 1-1 2-16 52-49 96-94 126 0 0 0 1 0 1-3 2-6 4-9 6 0 0-1 0-1 1-3 1-6 3-8 5-1 0-2 0-3 0-2 1-4 3-7 4-1 1-2 1-3 1-2 2-4 2-6 4-2 0-3 1-4 1-2 1-3 2-5 2-8 4-16 6-24 8-1 0-1 0-1 1-3 0-6 1-9 2-1 0-2 0-2 0-3 1-6 2-9 2 0 0-1 0-1 0-13 3-27 4-41 4-133 0-241-108-241-240 0-132 108-240 240-240 132 0 240 108 240 240 0 4 0 8 0 12-1 1-1 2-1 3z m-239-241c-124 0-226 102-226 226 0 124 102 226 226 226 13 0 26-1 39-3l-8-50c82-14 145-87 145-173l50 0c0-124-102-226-226-226z"/>
<glyph unicode="&#114;" d="M256 16c132 0 240 108 240 240 0 4 0 8 0 12 0 1 0 2 0 3 0 4-1 6-1 9 0 2 0 3 0 4-1 2-1 5-2 8 0 1 0 2 0 3-1 3-1 6-1 8 0 1-1 2-1 3-1 3-1 6-2 9 0 1-1 1-1 2 0 4-2 7-2 9 0 1-1 2-1 2-1 4-2 7-3 10 0 1 0 1-1 1-1 3-2 7-4 10 0 0 0 0 0 0-1 4-3 7-4 11-22 45-58 82-102 107 0 0-1 0-2 0-2 1-5 3-8 5-1 0-2 1-3 1-3 1-5 2-7 3-2 1-3 1-5 2-2 1-4 1-6 3-1 0-3 1-5 2-2 0-3 1-5 1-2 0-4 1-6 2-1 0-3 1-4 1-3 1-5 1-8 2-1 0-2 1-3 1-2 0-6 1-8 2-1 0-1 0-2 0-3 1-7 1-10 1 0 0 0 0-1 0-3 1-7 1-10 2-7 0-14 1-21 1-133 0-241-108-241-240 0-132 108-240 240-240z m0 466c6 0 13-1 20-1l-5-49c90-8 161-83 161-175l50 0c0-125-101-226-226-226-124-1-226 101-226 225 0 124 102 226 226 226z"/>
<glyph unicode="&#115;" d="M256 496c-132 0-240-108-240-240 0-132 108-240 240-240 132 0 240 108 240 240 0 132-108 240-240 240z m0-466c-124 0-226 102-226 226 0 124 102 226 226 226l0-50c97 0 176-79 176-176l50 0c0-124-102-226-226-226z"/>
<glyph unicode="&#116;" d="M256 496c-4 0-7 0-11 0-3 0-6-1-9-1 0 0-1 0-1 0-122-11-219-114-219-239 0-132 108-240 240-240 132 0 240 108 240 240 0 132-108 240-240 240z m0-466c-124 0-226 102-226 226 0 118 91 215 206 225l5-50c5 1 10 1 15 1 97 0 176-79 176-176l50 0c0-124-102-226-226-226z"/>
<glyph unicode="&#117;" d="M256 496c-4 0-8 0-12 0-1 0-4 0-6-1-1 0-3 0-4 0-3 0-6-1-9-1 0 0-1 0-2 0-2-1-5-1-8-2 0 0-1 0-1 0-112-20-198-118-198-236 0-132 108-240 240-240 132 0 240 108 240 240 0 132-108 240-240 240z m0-466c-124 0-226 102-226 226 0 111 81 204 186 222l9-49c10 2 19 2 30 2 98 0 176-78 176-176l50 0c1-123-101-225-225-225z"/>
<glyph unicode="&#118;" d="M256 496c-5 0-10 0-15-1-1 0-2 0-4 0-3 0-7 0-10-1-2 0-3 0-4-1-5 0-9-1-13-1-1 0-1 0-1 0-5-1-10-2-14-4 0 0-1 0-1 0-102-28-178-121-178-232 0-132 108-240 240-240 132 0 240 108 240 240 0 132-108 240-240 240z m0-466c-124 0-226 102-226 226 0 104 71 192 167 218l13-48c15 4 30 6 45 6 98 0 176-79 176-176l50 0c1-124-101-226-225-226z"/>
<glyph unicode="&#119;" d="M256 496c-4 0-8 0-12 0-1 0-2 0-3 0-3 0-5-1-8-1-1 0-3 0-5 0-2 0-5-1-7-1-1-1-2-1-3-1-3-1-6-1-8-1-1 0-3-1-3-1-3-1-6-1-9-2-1 0-2 0-2-1-8-2-15-4-22-6-92-34-158-122-158-226 0-132 108-240 240-240 132 0 240 108 240 240 0 132-108 240-240 240z m0-466c-124 0-226 102-226 226 0 97 62 180 149 212l17-47c18 7 39 11 60 11 97 0 176-79 176-176l50 0c0-124-102-226-226-226z"/>
<glyph unicode="&#120;" d="M256 496c-4 0-9 0-13-1-1 0-2 0-4 0-3 0-6 0-9 0-2 0-3-1-5-1-2-1-5-1-7-1-2 0-4-1-6-1-2 0-5 0-7-1-1-1-3-1-5-1-2-1-4-2-7-2-2-1-4-2-5-2-2 0-4-1-6-2-2 0-3-1-5-1-2-1-4-2-7-3-2-1-4-1-6-2-1-1-3-1-5-2-2-1-3-2-5-2-81-39-138-122-138-218 0-132 108-240 240-240 132 0 240 108 240 240 0 132-108 240-240 240z m0-466c-124 0-226 102-226 226 0 90 53 168 131 205l21-45c22 11 48 17 74 17 97 0 176-79 176-176l50 0c0-125-102-227-226-227z"/>
<glyph unicode="&#121;" d="M256 496c-5 0-10 0-15-1-1 0-3 0-4 0-4 0-7-1-10-2-2 0-4 0-5 0-4-1-8-1-13-2 0 0 0 0-1 0-4-1-9-2-14-3-1-1-3-1-4-2-3 0-6-2-10-3-1 0-2 0-4-1-4-1-7-3-11-4-1 0-1-1-2-1-5-1-9-3-13-5-1-1-2-2-3-2-3-2-6-3-9-5 0 0-2 0-2-1-71-42-120-119-120-208 0-132 108-240 240-240 132 0 240 108 240 240 0 132-108 240-240 240z m0-466c-124 0-226 102-226 226 0 83 46 156 113 195l25-43c25 15 55 24 87 24 98 0 176-79 176-176l50 0c1-124-101-226-225-226z"/>
<glyph unicode="&#122;" d="M256 496c-4 0-8 0-11 0-1 0-2 0-3 0-3 0-5-1-8-1-2 0-3 0-4 0-3-1-5-1-9-2 0 0-1 0-1 0-4 0-8-1-11-1-1 0-2 0-2-1-3-1-6-1-9-2-1 0-2-1-3-1-3-1-6-2-9-2 0 0-1-1-2-1-7-2-14-4-21-8 0 0-1 0-2 0-3-1-5-3-9-4 0 0-1-1-1-1-7-3-13-7-20-11-3-1-6-3-9-5 0 0-1 0-1-1-1-1-2-1-3-2-62-43-103-115-103-196 0-133 108-240 240-240 133 0 240 107 240 240 1 131-107 239-239 239z m0-466c-124 0-226 102-226 226 0 76 38 144 97 185l29-41c28 20 63 32 101 32 97 0 176-79 176-176l50 0c-1-124-103-226-227-226z"/>
<glyph unicode="&#65;" d="M256 496c-4 0-8 0-12 0-1 0-2 0-3 0-3 0-5-1-9-1-1 0-2 0-4 0-2 0-5-1-7-2-1 0-3 0-4 0-3-1-5-1-8-1-1 0-2-1-4-1-2-1-5-1-8-2-1 0-2-1-2-1-3-1-6-2-9-2-1 0-2 0-2-1-30-9-59-25-82-45-53-44-86-110-86-184 0-132 108-240 240-240 132 0 240 108 240 240 0 132-108 240-240 240z m0-466c-124 0-226 102-226 226 0 69 31 131 81 173l32-38c30 26 69 41 113 41 97 0 176-79 176-176l50 0c0-124-102-226-226-226z"/>
<glyph unicode="&#66;" d="M256 496c-67 0-126-27-170-70-43-44-70-104-70-170 0-132 108-240 240-240 132 0 240 108 240 240 0 132-108 240-240 240z m0-466c-124 0-226 102-226 226 0 62 26 118 66 159l35-35c32 32 76 52 124 52 98 0 176-79 176-176l50 0c1-124-101-226-225-226z"/>
<glyph unicode="&#67;" d="M256 496c-4 0-9 0-13-1-1 0-3 0-4 0-3 0-6-1-9-1-2 0-3-1-5-1-3 0-5 0-7-1-2 0-4 0-7-1-2-1-4-1-6-1-1-1-4-2-6-2-2 0-4 0-5-1-3-1-5-1-7-2-1-1-3-1-5-1-2-1-5-2-7-3-2 0-2 0-3-1-3-1-6-2-9-3 0 0 0 0 0-1-18-8-34-17-50-28 0 0 0 0 0 0-4-2-6-4-9-6 0 0 0-1 0-1-3-3-5-5-9-7 0 0 0-1 0-1-3-2-5-5-8-7 0 0 0 0-1-1-5-5-9-10-14-15-35-41-56-95-56-154 0-132 108-240 240-240 132 0 240 108 240 240 0 132-108 240-240 240z m0-466c-124 0-226 102-226 226 0 55 20 106 53 145l38-32c32 39 81 63 135 63 97 0 176-79 176-176l50 0c0-124-102-226-226-226z"/>
<glyph unicode="&#68;" d="M256 496c-4 0-10 0-14-1-1 0-3 0-5 0-3 0-6-1-9-1-1 0-3-1-5-1-3 0-5 0-8-1-2 0-4 0-5-1-3-1-6-1-8-2-2-1-4-1-6-1-4 0-8-2-12-3-2-1-4-1-6-2-2 0-4-1-6-2-2 0-4-2-7-2-2-1-3-2-5-2-3-1-4-2-7-3-1-1-3-2-4-2-2-2-5-3-8-4-6-3-12-7-17-11-1-1-2-1-2-1-3-2-6-4-7-5-2-1-2-2-4-2-2-2-4-4-7-5 0-1-2-2-2-3-3-2-5-4-7-6-1 0-2-1-2-2-5-4-10-9-15-14-2-2-4-4-5-7-1-1-2-2-3-3-2-2-3-4-5-6-1-1-2-2-3-4-1-2-2-3-2-4-28-40-44-88-44-139 0-132 108-240 240-240 132 0 240 108 240 240 0 132-108 240-240 240z m0-466c-124 0-226 102-226 226 0 48 15 93 41 129l41-29c32 46 84 75 144 75 97 0 176-78 176-176l50 0c0-123-102-225-226-225z"/>
<glyph unicode="&#69;" d="M256 496c-5 0-10 0-15-1-1 0-3 0-4 0-3 0-7-1-10-2-2 0-4 0-5 0-4-1-9-1-13-2-1 0-2-1-4-1-3 0-7-2-10-2-3 0-5-1-7-2-2 0-5-1-8-2-1-1-3-1-5-2-3-1-6-2-9-3-3-2-6-3-9-4-2-1-5-2-7-3-2-2-4-3-6-4-2-1-3-1-5-3-3-1-5-2-7-4-1 0-3-1-4-2-4-3-8-5-12-8-1-2-3-2-4-4-2-2-4-3-6-5-2-1-3-2-4-3-2-2-4-3-7-5-1-1-2-3-3-3-4-3-7-7-10-10-1-1-3-3-4-4-2-2-3-4-4-6-2-2-3-3-5-5-1-2-2-3-4-5-2-4-5-7-7-11 0-1-2-2-2-4-2-3-4-5-5-8 0 0 0-1-1-2-21-35-32-76-32-119 0-133 107-240 240-240 132 0 240 107 240 240-2 131-110 239-242 239z m0-466c-124 0-226 102-226 226 0 41 11 79 30 113l43-25c31 53 88 88 153 88 97 0 176-79 176-176l50 0c0-124-102-226-226-226z"/>
<glyph unicode="&#70;" d="M256 496c-5 0-11 0-16-1-1 0-3 0-4 0-5-1-9-1-13-2-1 0-2 0-3 0-5-1-9-2-15-3-1 0-3 0-5-1-3-1-7-2-10-3-1 0-3 0-4-1-5-1-9-2-13-4-2-1-5-2-7-2-2-2-5-2-7-3-2-1-5-2-7-3-4-2-7-4-11-5-2-1-4-3-7-4-2-1-3-2-5-3-3-1-5-3-7-5-2-1-4-2-6-4-3-2-7-5-10-8-2-1-4-2-5-4-2-2-4-4-6-5-2-2-3-3-5-4-3-3-6-7-9-10-2-1-4-3-5-4-2-2-3-4-5-6-1-2-3-4-4-6-2-2-4-4-6-7-2-2-4-6-7-9-1-2-2-4-3-5-2-3-3-5-4-8-1-1-2-3-3-4-2-4-4-8-6-12 1-2 0-2 0-3-14-31-22-65-22-101 0-132 108-240 240-240 132 0 240 108 240 240 0 132-108 240-240 240z m0-466c-124 0-226 102-226 226 0 34 8 67 21 95l45-21c29 60 90 102 160 102 97 0 176-79 176-176l50 0c0-124-102-226-226-226z"/>
<glyph unicode="&#71;" d="M256 496c-4 0-8 0-12 0-1 0-1 0-3 0-2 0-5-1-8-1-1 0-2 0-3 0-3-1-7-1-10-2 0 0-1 0-1 0-8-1-15-2-23-4 0 0 0 0-1 0-3-2-7-3-10-4-72-22-129-77-154-147-10-26-15-53-15-82 0-132 108-240 240-240 132 0 240 108 240 240 0 132-108 240-240 240z m0-466c-124 0-226 102-226 226 0 27 5 53 14 77l46-17c25 68 90 116 166 116 97 0 176-79 176-176l50 0c0-124-102-226-226-226z"/>
<glyph unicode="&#72;" d="M256 496c-4 0-8 0-12 0-1 0-2 0-3 0-2 0-5-1-8-1-1 0-3 0-4 0-2 0-5-1-8-2-1 0-1 0-3 0-3-1-6-1-9-2 0 0-1 0-2-1-11-2-23-6-34-9-58-21-106-65-133-121 0 0 0-1 0-1-2-3-3-6-4-8 0-1-1-2-1-2-2-3-3-6-4-9 0-1 0-1 0-2-2-3-3-7-4-10 0-1-1-2-1-3 0-2-1-4-2-7-5-20-8-40-8-62 0-132 108-240 240-240 132 0 240 108 240 240 0 132-108 240-240 240z m0-466c-124 0-226 102-226 226 0 20 3 40 8 58l48-13c20 75 89 131 170 131 97 0 176-79 176-176l50 0c0-124-102-226-226-226z"/>
<glyph unicode="&#73;" d="M256 496c-4 0-8 0-12 0-1 0-2 0-3 0-2 0-5-1-8-1-1 0-3 0-4 0-2 0-5-1-8-2-1 0-2 0-3 0-3-1-6-1-8-1-1 0-2-1-3-1-3-1-6-1-9-2 0 0-2-1-2-1-4-1-7-2-10-3-1 0-1 0-2-1-52-16-96-49-126-94 0 0-1 0-1 0-2-3-4-6-6-9 0 0 0-1-1-1-1-3-3-6-5-8 0-1 0-2 0-3-1-2-3-4-4-7-1-1-1-2-1-3-2-2-2-4-4-6 0-2-1-3-1-4-1-2-2-3-2-5-4-8-6-16-8-24 0-1 0-1-1-1 0-3-1-6-2-9 0-1 0-2 0-2-1-3-2-7-2-9 0 0 0-1 0-1-3-13-4-27-4-41 0-133 108-240 240-240 132 0 240 107 240 240 0 131-108 239-240 239z m0-466c-124 0-226 102-226 226 0 13 1 26 3 39l50-8c14 82 87 145 173 145 97 0 176-79 176-176l50 0c0-124-102-226-226-226z"/>
<glyph unicode="&#74;" d="M256 496c-4 0-8 0-12 0-1 0-2 0-3 0-4 0-6-1-9-1-2 0-3 0-4 0-2 0-5-1-8-2-1 0-2 0-3 0-3-1-6-1-8-1-1 0-2-1-3-1-3-1-6-1-9-2-1 0-1-1-2-1-4 0-7-2-9-2-1 0-2-1-2-1-4-1-7-2-10-3-1 0-1 0-1-1-3-1-7-2-10-4 0 0 0 0 0 0-4-1-7-3-11-4-45-22-82-58-107-102 0 0 0-1 0-2-1-2-3-5-5-8 0-1-1-3-2-3-1-2-2-5-3-7 0-2-1-3-2-5 0-2-1-4-2-6 0-1-1-3-2-5 0-2-1-3-1-5 0-2-1-4-2-7 0 0-1-2-1-3-1-3-1-5-2-8 0-1-1-2-1-3 0-2-1-6-2-8 0-1 0-1 0-2-1-3-1-7-1-10 0 0 0 0 0-1-1-3-1-7-2-10 0-7-1-14-1-21 0-133 108-240 240-240 132 0 240 107 240 240 0 131-108 239-240 239z m0-466c-124 0-226 102-226 226 0 6 1 13 1 20l49-5c8 90 83 161 175 161 98 0 176-79 176-176l50 0c1-124-101-226-225-226z"/>
<glyph unicode="&#75;" d="M256 496c-132 0-240-108-240-240 0-132 108-240 240-240 132 0 240 108 240 240 0 132-108 240-240 240z m0-466c-124 0-226 102-226 226l50 0c0 97 79 176 176 176 97 0 176-79 176-176l50 0c0-124-102-226-226-226z"/>
<glyph unicode="&#76;" d="M256 496c-132 0-240-108-240-240 0-4 0-7 0-11 0-3 1-6 1-9 0 0 0-1 0-1 11-122 114-219 239-219 132 0 240 108 240 240 0 132-108 240-240 240z m0-466c-118 0-215 91-225 206l50 5c-1 5-1 10-1 15 0 97 79 176 176 176 97 0 176-79 176-176l50 0c0-124-102-226-226-226z"/>
<glyph unicode="&#77;" d="M256 496c-132 0-240-108-240-240 0-4 0-8 0-12 0-1 0-4 1-6 0-1 0-3 0-4 0-3 1-6 1-9 0 0 0-1 0-2 1-2 1-5 2-8 0 0 0-1 0-1 20-112 118-198 236-198 132 0 240 108 240 240 0 132-108 240-240 240z m0-466c-111 0-204 81-222 186l49 9c-2 10-2 19-2 30 0 98 78 176 176 176 97 0 175-78 175-175l50 0c0-124-102-226-226-226z"/>
<glyph unicode="&#78;" d="M256 496c-132 0-240-108-240-240 0-5 0-10 1-15 0-1 0-2 0-4 0-3 0-7 1-10 0-2 0-3 1-4 0-5 1-9 1-13 0-1 0-1 0-1 1-5 2-10 4-14 0 0 0-1 0-1 27-102 121-178 231-178 133 0 240 108 240 240 1 132-107 240-239 240z m0-466c-104 0-192 71-218 167l48 13c-4 15-6 30-6 45 0 98 79 176 176 176 97 0 176-78 176-175l50 0c0-124-102-226-226-226z"/>
<glyph unicode="&#79;" d="M256 496c-132 0-240-108-240-240 0-4 0-8 0-12 0-1 0-2 0-3 0-3 1-5 1-9 0-1 0-2 0-4 0-2 1-5 2-7 0-1 0-2 0-3 1-3 1-6 1-8 0-1 1-2 1-3 1-3 1-6 2-9 0-1 1-2 1-2 2-7 4-15 6-22 34-92 122-158 226-158 132 0 240 108 240 240 0 132-108 240-240 240z m0-466c-97 0-180 62-212 149l47 17c-7 18-11 39-11 60 0 97 79 176 176 176 97 0 176-79 176-176l50 0c0-124-102-226-226-226z"/>
<glyph unicode="&#80;" d="M256 496c-132 0-240-108-240-240 0-4 0-9 1-13 0-1 0-2 0-4 0-3 0-6 0-9 0-2 1-3 1-5 1-2 1-5 1-7 0-2 1-4 1-6 0-2 0-5 1-7 1-1 1-3 1-5 1-2 2-4 2-7 1-2 2-4 2-5 0-2 1-4 2-6 0-2 1-4 1-5 1-2 2-4 3-7 1-2 1-4 2-6 1-1 1-3 2-5 1-2 2-3 2-5 39-82 122-139 218-139 132 0 240 108 240 240 0 133-108 241-240 241z m0-466c-90 0-168 53-205 131l45 21c-11 22-17 48-17 74 0 97 79 176 176 176 98 0 177-79 177-176l50 0c0-124-102-226-226-226z"/>
<glyph unicode="&#81;" d="M256 496c-132 0-240-108-240-240 0-5 0-10 1-15 0-1 0-3 0-4 0-4 1-7 2-10 0-2 0-4 0-5 1-4 1-8 2-13 0 0 0 0 0-1 1-4 2-9 3-14 1-1 1-3 2-4 0-3 2-6 3-10 0-1 0-2 1-4 1-4 3-7 4-11 0-1 1-1 1-2 1-5 3-9 5-13 1-1 2-2 2-3 2-3 3-6 5-9 0 0 0-2 1-2 42-71 119-120 208-120 132 0 240 108 240 240 0 132-108 240-240 240z m0-466c-83 0-156 46-195 113l43 25c-15 25-24 55-24 87 0 98 79 176 176 176 97 0 176-78 176-175l50 0c0-124-102-226-226-226z"/>
<glyph unicode="&#82;" d="M256 496c-132 0-240-108-240-240 0-4 0-8 0-11 0-1 0-2 0-3 0-3 1-5 1-8 0-2 0-3 0-4 1-3 1-5 2-9 0 0 0-1 0-1 0-4 1-8 1-11 0-1 0-2 1-2 1-3 1-6 2-9 0-1 1-2 1-3 1-3 2-6 2-9 0 0 1-1 1-2 2-7 4-14 8-21 0 0 0-1 0-2 1-3 3-5 4-9 0 0 1 0 1-1 3-7 7-13 11-20 1-3 3-6 6-9 0 0 0 0 0-1 1-1 1-2 2-3 43-62 115-103 196-103 133 0 240 108 240 240 1 133-107 241-239 241z m0-466c-76 0-144 38-185 97l41 29c-20 28-32 63-32 101 0 97 79 176 176 176 97 0 176-80 176-177l50 0c0-124-102-226-226-226z"/>
<glyph unicode="&#83;" d="M256 496c-132 0-240-108-240-240 0-4 0-8 0-12 0-1 0-2 0-3 0-3 1-5 1-9 0-1 0-2 0-4 0-2 1-5 2-7 0-1 0-3 0-4 1-3 1-5 1-8 0-1 1-2 1-3 1-2 1-5 2-8 0-1 1-2 1-3 1-3 2-6 2-9 0-1 0-2 1-2 9-30 25-59 45-82 44-53 110-86 184-86 132 0 240 108 240 240 0 132-108 240-240 240z m0-466c-69 0-131 31-173 81l38 32c-26 30-41 69-41 113 0 97 79 176 176 176 97 0 176-79 176-176l50 0c0-125-102-226-226-226z"/>
<glyph unicode="&#84;" d="M256 496c-132 0-240-108-240-240 0-67 27-126 70-170 44-43 104-70 170-70 132 0 240 108 240 240 0 132-108 240-240 240z m0-466c-62 0-118 26-159 66l35 35c-32 32-52 76-52 124 0 98 79 176 176 176 97 0 176-78 176-175l50 0c0-124-102-226-226-226z"/>
<glyph unicode="&#85;" d="M256 496c-132 0-240-108-240-240 0-4 0-9 1-13 0-1 0-3 0-4 0-3 1-6 1-9 0-2 1-3 1-5 0-3 0-5 1-7 0-2 0-4 1-7 1-2 1-4 1-6 1-1 2-4 2-6 0-2 0-4 1-5 1-3 1-5 2-7 1-1 1-3 1-5 1-2 2-5 3-7 0-2 0-2 1-3 1-3 2-6 3-9 0 0 0 0 1 0 8-18 17-34 28-50 2-3 4-5 7-8 0 0 1-1 1-1 2-2 4-5 7-8 0 0 0-1 0-1 3-2 5-5 8-7 0 0 0 0 1-1 5-5 9-10 15-14 42-35 95-56 154-56 133 0 240 107 240 240-1 131-109 239-241 239z m0-466c-55 0-106 20-145 53l32 38c-39 32-63 81-63 135 0 97 79 176 176 176 97 0 176-79 176-176l50 0c0-124-102-226-226-226z"/>
<glyph unicode="&#86;" d="M256 496c-132 0-240-108-240-240 0-4 0-10 1-14 0-1 0-3 0-5 0-3 1-6 1-9 0-1 1-3 1-5 0-3 0-5 1-8 0-2 0-4 1-6 1-2 1-5 2-8 1-2 1-3 1-5 0-4 2-8 3-12 1-2 1-4 2-6 0-2 1-4 2-6 0-2 2-4 2-7 1-2 2-3 2-5 1-3 2-4 3-7 1-1 2-3 2-4 2-2 3-5 4-8 3-6 7-12 11-17 1-1 1-2 1-2 2-3 4-6 5-7 1-2 2-2 2-4 2-2 4-4 5-7 1 0 2-2 3-2 2-3 4-5 6-7 0-1 1-2 1-2 5-5 10-10 15-15 2-2 4-4 6-6 1-1 3-2 3-3 2-2 4-3 6-4 1-2 3-2 5-4 1 0 2-1 3-2 41-27 89-43 140-43 132 0 240 108 240 240 0 132-108 240-240 240z m0-466c-48 0-93 15-129 41l29 41c-46 32-75 84-75 144 0 97 78 176 176 176 97 0 175-79 175-176l50 0c0-124-102-226-226-226z"/>
<glyph unicode="&#87;" d="M256 496c-132 0-240-108-240-240 0-5 0-10 1-15 0-1 0-3 0-4 0-3 1-7 2-10 0-2 0-4 0-5 1-4 1-9 2-13 0-1 1-2 1-4 0-3 2-7 2-10 0-3 1-5 2-7 0-2 1-5 2-8 1-1 1-3 2-5 1-3 2-6 3-9 2-3 3-6 4-9 1-2 2-4 3-7 2-2 3-4 4-7 1-1 1-2 3-4 1-3 2-5 4-7 0-1 1-3 2-4 3-4 6-8 8-12 2-1 2-3 4-4 2-2 3-4 5-6 1-2 2-3 3-4 2-2 3-4 5-7 1-1 3-2 3-3 3-4 7-7 10-10 1-1 3-3 4-4 2-2 4-3 6-4 2-2 3-3 5-5 2-1 3-2 5-4 4-2 7-5 11-7 1 0 2-2 4-2 3-2 5-4 8-5 0 0 1 0 2-1 35-21 76-32 119-32 133 0 240 107 240 240 1 130-107 238-239 238z m0-466c-41 0-79 11-113 30l25 43c-53 31-88 88-88 153 0 97 79 176 176 176 97 0 176-79 176-176l50 0c0-124-102-226-226-226z"/>
<glyph unicode="&#88;" d="M256 496c-132 0-240-108-240-240 0-5 0-11 1-16 0-1 0-3 0-4 1-5 1-9 2-13 0-1 0-2 0-3 1-5 2-9 3-15 0-1 0-3 1-5 1-3 2-7 3-10 0-1 0-3 1-4 1-5 2-9 4-13 1-2 2-5 2-7 2-2 2-5 3-7 1-2 2-5 3-7 2-4 3-7 5-10 1-2 3-4 4-7 1-2 2-4 3-6 1-2 3-4 5-7 1-2 2-3 4-5 2-4 5-8 8-11 1-1 2-3 4-4 2-2 4-5 5-7 2-1 3-2 4-4 3-3 7-7 10-10 1-1 3-3 4-4 2-2 4-3 6-5 2-2 4-4 6-5 2-2 4-4 7-6 2-1 6-3 9-6 2-1 4-3 5-3 3-2 5-3 8-5 1 0 3-2 4-2 4-2 8-5 12-7 1 0 1 0 2 0 30-15 65-23 101-23 132 0 240 108 240 240 1 133-107 241-239 241z m0-466c-34 0-67 8-95 21l21 45c-60 29-102 90-102 160 0 97 79 176 176 176 97 0 176-79 176-176l50 0c0-124-102-226-226-226z"/>
<glyph unicode="&#89;" d="M256 496c-132 0-240-108-240-240 0-4 0-8 0-12 0-1 0-1 0-3 0-2 1-5 1-8 0-1 0-2 0-3 1-3 1-7 2-10 0 0 0-1 0-1 1-8 2-15 4-23 0 0 0 0 0-1 2-3 3-7 4-10 22-72 77-129 147-154 26-10 53-15 82-15 132 0 240 108 240 240 0 132-108 240-240 240z m0-466c-27 0-53 5-77 14l17 46c-68 25-116 90-116 166 0 97 79 176 176 176 97 0 176-79 176-176l50 0c0-124-102-226-226-226z"/>
<glyph unicode="&#90;" d="M256 496c-132 0-240-108-240-240 0-4 0-8 0-12 0-1 0-2 0-3 0-2 1-5 1-8 0-1 0-3 0-4 0-2 1-5 2-8 0-1 0-1 0-3 1-3 1-6 2-9 0 0 0-1 1-2 15-73 64-135 130-167 1 0 2 0 2 0 2-2 5-3 8-4 1 0 1-1 2-1 2-1 6-2 8-3 1 0 1-1 2-1 3-1 7-2 10-3 1 0 2-1 3-1 2-1 4-1 7-2 20-5 40-8 62-8 132 0 240 107 240 240 0 131-108 239-240 239z m0-466c-20 0-40 3-58 8l13 48c-75 20-131 89-131 170 0 97 79 176 176 176 97 0 176-79 176-176l50 0c0-124-102-226-226-226z"/>
<glyph unicode="&#48;" d="M256 496c-132 0-240-108-240-240 0-4 0-8 0-12 0-1 0-2 0-3 0-2 1-5 1-8 0-1 0-3 0-4 0-2 1-5 2-8 0-1 0-2 0-3 1-3 1-6 1-8 0-1 1-2 1-3 1-3 1-6 2-9 0 0 1-2 1-2 1-4 2-7 3-10 0-1 0-1 1-2 16-52 49-96 94-126 0 0 0-1 0-1 3-2 6-4 9-5 0-1 1-1 1-1 3-2 6-4 8-5 1-1 2-1 3-1 2-1 4-3 7-4 1-1 2-1 3-1 2-2 4-2 6-4 2 0 3-1 4-1 2-1 3-2 5-2 8-4 16-6 24-8 1 0 1 0 1-1 3 0 6-1 9-2 1 0 2 0 2 0 3-1 7-2 9-2 0 0 1 0 1 0 13-3 27-4 41-4 133 0 240 108 240 240 1 132-107 240-239 240z m0-466c-13 0-26 1-39 3l8 50c-82 14-145 87-145 173 0 97 79 176 176 176 97 0 176-79 176-176l50 0c0-125-102-226-226-226z"/>
<glyph unicode="&#49;" d="M256 496c-132 0-240-108-240-240 0-4 0-8 0-12 0-1 0-2 0-3 0-4 1-6 1-9 0-2 0-3 0-4 1-2 1-5 2-8 0-1 0-2 0-3 1-3 1-6 1-8 0-1 1-2 1-3 1-3 1-6 2-9 0-1 1-1 1-2 0-4 2-7 2-9 0-1 1-2 1-2 1-4 2-7 3-10 0-1 0-1 1-1 1-3 2-7 4-10 0 0 0 0 0 0 1-4 3-7 4-11 22-45 58-82 102-107 0 0 1 0 2 0 2-1 5-3 8-4 1-1 2-1 3-1 2-2 5-2 7-4 2 0 3-1 5-1 2-1 4-2 6-2 1-1 3-2 5-2 2-1 3-2 5-2 2 0 4-1 7-1 1-1 2-1 4-2 2 0 5-1 7-2 2 0 2 0 4 0 2-1 5-2 8-2 0 0 1 0 2-1 3-1 6-1 9-1 1 0 1 0 2 0 3-1 7-1 10-1 7-1 14-2 21-2 132 0 240 108 240 240 0 131-108 239-240 239z m0-466c-6 0-13 1-20 1l5 49c-90 8-161 83-161 175 0 98 79 176 176 176 97 0 176-78 176-175l50 0c0-125-102-226-226-226z"/>
<glyph unicode="&#50;" d="M256 496c-132 0-240-108-240-240 0-132 108-240 240-240 132 0 240 108 240 240 0 132-108 240-240 240z m0-466l0 50c-97 0-176 79-176 176 0 97 79 176 176 176 97 0 176-79 176-176l50 0c0-124-102-226-226-226z"/>
<glyph unicode="&#51;" d="M256 496c-132 0-240-108-240-240 0-132 108-240 239-240 0 0 0 0 1 0 4 0 7 0 11 0 3 0 6 1 9 1 0 0 1 0 1 0 122 11 219 114 219 239 0 132-108 240-240 240z m20-465l-5 50c-5-1-10-1-15-1-97 0-176 79-176 176 0 97 79 176 176 176 97 0 176-79 176-176l50 0c0-118-91-215-206-225z"/>
<glyph unicode="&#52;" d="M256 496c-132 0-240-108-240-240 0-132 108-240 239-240 0 0 0 0 1 0 4 0 8 0 12 0 1 0 4 0 6 1 1 0 3 0 4 0 3 0 6 1 9 1 0 0 1 0 2 0 3 1 5 1 9 1 0 0 0 0 0 0 113 20 199 119 199 236-1 133-109 241-241 241z m39-462l-8 49c-11-2-20-2-31-2-97 0-176 78-176 176 0 97 79 175 176 175 97 0 176-79 176-176l50 0c0-111-81-204-187-222z"/>
<glyph unicode="&#53;" d="M256 496c-132 0-240-108-240-240 0-132 108-240 239-240 0 0 0 0 1 0 5 0 10 0 15 1 1 0 2 0 4 0 3 0 7 0 10 1 2 0 3 0 4 1 5 0 9 1 13 1 1 0 1 0 1 0 5 1 10 2 14 4 0 0 1 0 1 0 102 27 178 121 178 231 0 133-108 241-240 241z m58-458l-13 48c-14-4-30-6-45-6-97 0-176 79-176 176 0 97 79 176 176 176 97 0 176-79 176-176l50 0c0-104-71-192-168-218z"/>
<glyph unicode="&#54;" d="M256 496c-132 0-240-108-240-240 0-132 108-240 239-240 0 0 0 0 1 0 4 0 8 0 12 0 1 0 2 0 3 0 3 0 5 1 9 1 1 0 2 0 4 0 2 0 5 1 7 2 1 0 3 0 4 0 3 1 5 1 8 1 1 0 2 1 3 1 3 1 6 1 9 2 1 0 1 1 2 1 7 2 15 4 22 6 91 34 157 122 157 226 0 132-108 240-240 240z m77-452l-17 47c-18-7-39-11-60-11-97 0-176 79-176 176 0 97 79 176 176 176 97 0 176-79 176-176l50 0c0-97-62-180-149-212z"/>
<glyph unicode="&#55;" d="M256 496c-132 0-240-108-240-240 0-132 108-240 239-240 0 0 0 0 1 0 4 0 9 0 13 1 1 0 2 0 4 0 3 0 6 0 9 0 2 0 3 1 5 1 2 1 5 1 7 1 2 0 4 1 6 1 2 0 5 0 7 1 1 1 3 1 5 1 2 1 4 2 7 2 2 1 3 2 5 2 2 0 4 1 6 2 2 0 4 1 5 1 2 1 4 2 7 3 2 1 4 1 6 2 1 1 3 1 5 2 2 1 3 2 5 2 82 39 139 122 139 218-1 132-109 240-241 240z m95-445l-21 45c-22-11-48-17-74-17-97 0-176 79-176 176 0 98 79 177 176 177 97 0 176-79 176-176l50 0c0-90-54-168-131-205z"/>
<glyph unicode="&#56;" d="M256 496c-132 0-240-108-240-240 0-132 108-240 239-240 0 0 0 0 1 0 5 0 10 0 15 1 1 0 3 0 4 0 4 0 7 1 10 2 2 0 4 0 5 0 4 1 8 1 13 2 0 0 0 0 1 0 4 1 9 2 13 3 2 1 3 1 4 2 3 0 7 2 10 3 1 0 2 0 4 1 4 1 7 3 11 4 1 1 2 1 3 1 4 1 8 3 12 5 1 1 3 2 4 2 2 2 5 3 8 5 1 0 2 0 3 1 71 42 120 119 120 208 0 132-108 240-240 240z m113-435l-25 43c-26-15-56-24-88-24-97 0-176 79-176 176 0 97 79 176 176 176 97 0 176-79 176-176l50 0c0-83-46-156-113-195z"/>
<glyph unicode="&#57;" d="M256 496c-132 0-240-108-240-240 0-132 108-240 239-240 0 0 0 0 1 0 4 0 8 0 11 0 1 0 2 0 3 0 3 0 5 1 8 1 2 0 3 0 4 0 3 1 5 1 9 2 0 0 1 0 1 0 4 0 8 1 11 1 1 0 2 0 2 1 3 1 6 1 9 2 1 0 2 1 3 1 3 0 6 1 9 2 0 0 1 1 2 1 7 2 14 4 21 8 0 0 1 0 2 0 3 1 5 3 9 4 0 0 0 1 1 1 10 5 20 11 29 16 0 0 0 0 1 0 1 1 2 2 3 2 62 44 103 115 103 197-1 133-109 241-241 241z m129-425l-29 41c-28-20-63-32-101-32-97 0-176 79-176 176 0 97 80 176 177 176 97 0 176-79 176-176l50 0c0-76-38-144-97-185z"/>
<glyph unicode="&#33;" d="M256 496c-132 0-240-108-240-240 0-132 108-240 239-240 0 0 0 0 1 0 4 0 8 0 12 0 1 0 2 0 3 0 3 0 5 1 9 1 1 0 2 0 4 0 2 0 5 1 7 2 1 0 3 0 4 0 3 1 5 1 8 1 1 0 2 1 3 1 2 1 5 1 8 2 1 0 2 1 3 1 3 0 6 2 9 2 0 0 1 0 1 1 31 9 59 25 83 45 52 44 85 110 85 184 1 132-107 240-239 240z m145-413l-32 38c-30-26-69-41-113-41-97 0-176 79-176 176 0 97 79 176 176 176 97 0 176-79 176-176l50 0c0-69-31-131-81-173z"/>
<glyph unicode="&#34;" d="M256 496c-132 0-240-108-240-240 0-132 108-240 239-240 0 0 0 0 1 0 67 0 126 27 170 70 43 44 70 104 70 170 0 132-108 240-240 240z m159-399l-35 35c-32-32-76-52-124-52-97 0-176 79-176 176 0 97 79 176 176 176 97 0 176-79 176-176l50 0c0-62-26-118-67-159z"/>
<glyph unicode="&#35;" d="M256 496c-132 0-240-108-240-240 0-132 108-240 239-240 0 0 0 0 1 0 4 0 9 0 13 1 1 0 3 0 4 0 3 0 6 1 9 1 2 0 3 1 5 1 3 0 5 0 7 1 2 0 4 0 7 1 2 1 4 1 6 1 1 1 4 2 6 2 2 0 3 0 5 1 3 1 5 1 7 2 1 1 3 1 5 1 2 1 5 2 7 3 2 0 2 0 3 1 3 1 6 2 9 3 0 0 0 0 0 1 18 8 34 17 50 28 3 2 5 4 8 7 0 0 1 1 1 1 2 2 5 4 8 7 0 0 1 0 1 0 2 3 5 5 7 8 0 0 0 0 1 1 5 5 10 9 14 15 35 42 56 95 56 154 1 131-107 239-239 239z m173-385l-38 32c-32-39-81-63-135-63-97 0-176 79-176 176 0 97 79 176 176 176 97 0 176-79 176-176l50 0c0-55-20-106-53-145z"/>
<glyph unicode="&#36;" d="M256 496c-132 0-240-108-240-240 0-132 108-240 239-240 0 0 0 0 1 0 4 0 9 0 14 1 1 0 3 0 5 0 3 0 6 1 9 1 1 0 3 1 5 1 2 0 5 0 8 1 2 0 4 0 6 1 2 1 5 1 8 2 2 1 3 1 5 1 4 2 8 2 12 4 2 0 4 1 6 1 2 1 4 2 6 2 2 1 4 2 7 3 2 1 3 1 5 2 3 1 4 2 7 3 1 1 3 1 4 2 2 1 5 3 8 4 6 3 12 7 17 11 1 0 2 0 2 1 3 2 6 3 7 5 2 1 2 1 4 2 2 2 4 4 7 5 0 1 2 1 2 3 3 2 5 4 7 5 1 1 2 2 2 2 5 4 10 9 15 14 2 2 4 5 6 7 1 1 2 2 3 3 2 2 3 4 4 6 2 1 2 2 4 4 0 2 1 3 2 4 27 40 43 88 43 139 0 132-108 240-240 240z m185-369l-41 29c-32-46-84-75-144-75-97 0-176 78-176 176 0 97 79 175 176 175 97 0 176-79 176-176l50 0c0-48-15-93-41-129z"/>
<glyph unicode="&#37;" d="M256 496c-132 0-240-108-240-240 0-132 108-240 239-240 0 0 0 0 1 0 5 0 10 0 15 1 1 0 3 0 4 0 3 0 7 1 10 2 2 0 4 0 5 0 4 1 9 1 13 2 1 0 2 1 4 1 3 0 7 2 10 2 2 1 4 2 6 2 3 1 5 2 8 3 2 0 4 1 6 2 2 1 5 2 8 3 3 1 6 2 10 4 1 0 3 2 6 2 3 2 4 3 7 4 2 0 3 1 5 2 3 1 5 3 7 4 1 1 3 2 4 2 4 3 8 6 12 9 1 1 3 2 4 3 2 2 4 3 6 5 2 1 3 2 4 3 2 2 4 4 7 5 1 2 2 3 3 4 4 3 8 6 11 10 1 1 2 3 4 4 1 2 3 4 4 6 1 2 3 3 5 5 1 2 2 3 3 5 3 4 5 7 7 11 1 1 2 2 3 4 2 3 3 5 4 8 1 0 1 1 2 2 20 35 32 76 32 119 1 133-107 241-239 241z m152-328c-30-53-87-88-152-88-97 0-176 79-176 176 0 97 79 176 176 176 97 0 176-79 176-176l50 0c0-41-11-79-30-113z"/>
<glyph unicode="&#38;" d="M256 496c-132 0-240-108-240-240 0-132 108-240 239-240 0 0 0 0 1 0 5 0 11 0 16 1 1 0 3 0 4 0 5 1 9 1 13 2 1 0 2 0 3 0 5 1 9 2 15 3 1 0 3 0 5 1 3 1 7 2 10 3 2 0 3 0 5 1 5 1 8 2 13 4 2 1 4 2 6 3 2 1 5 2 7 3 2 1 5 2 7 3 4 2 7 3 10 5 2 1 5 2 7 4 2 1 4 2 6 3 2 1 4 2 7 4 2 2 3 3 5 4 4 2 8 5 11 8 1 1 3 2 4 4 2 2 5 4 7 5 1 2 2 3 4 4 3 3 7 7 10 10 1 1 3 3 4 4 2 2 3 4 5 6 2 2 4 4 5 6 2 2 4 4 6 7 1 2 3 6 5 8 2 2 3 4 4 5 1 3 3 5 4 8 1 1 2 3 3 5 1 3 4 8 6 12 0 0 1 0 1 1 14 31 22 65 22 101 0 134-108 242-240 242z m159-314c-28-60-89-102-159-102-97 0-176 79-176 176 0 97 79 176 176 176 97 0 176-79 176-176l50 0c0-34-8-67-21-95z"/>
<glyph unicode="&#39;" d="M256 496c-132 0-240-108-240-240 0-132 108-240 239-240 0 0 0 0 1 0 4 0 8 0 12 0 1 0 1 0 3 0 2 0 5 1 8 1 1 0 2 0 3 0 3 1 7 1 10 2 0 0 1 0 1 0 8 1 15 2 23 4 0 0 0 0 1 0 4 1 7 2 11 3 71 23 128 77 154 147 10 26 15 54 15 82-1 133-109 241-241 241z m165-300c-24-68-89-116-165-116-97 0-176 79-176 176 0 97 79 176 176 176 97 0 176-79 176-176l50 0c0-27-5-53-14-77z"/>
<glyph unicode="&#40;" d="M256 496c-132 0-240-108-240-240 0-132 108-240 239-240 0 0 0 0 1 0 4 0 8 0 12 0 1 0 2 0 3 0 2 0 5 1 8 1 1 0 3 0 4 0 2 0 5 1 8 2 1 0 1 0 3 0 3 1 6 1 9 2 0 0 1 0 2 1 73 15 135 64 167 130 0 1 0 2 0 2 2 2 3 5 4 8 0 1 1 1 1 2 1 2 2 6 3 8 0 1 1 1 1 2 1 3 2 7 3 10 0 1 1 2 1 3 1 2 1 4 2 7 5 20 8 40 8 62 1 132-107 240-239 240z m170-285c-20-75-89-131-170-131-97 0-176 79-176 176 0 97 79 176 176 176 97 0 176-79 176-176l50 0c0-20-3-40-8-58z"/>
<glyph unicode="&#41;" d="M256 496c-132 0-240-108-240-240 0-132 108-240 239-240 0 0 0 0 1 0 4 0 8 0 12 0 1 0 2 0 3 0 2 0 5 1 8 1 1 0 3 0 4 0 2 0 5 1 8 2 1 0 2 0 3 0 3 1 6 1 8 1 1 0 2 1 3 1 3 1 6 1 9 2 0 0 2 1 2 1 3 0 7 2 10 2 0 0 0 0 1 1 53 17 97 50 127 95 0 0 1 0 1 0 2 3 4 6 5 9 1 0 1 1 1 1 2 3 4 6 5 8 1 1 1 2 1 3 1 2 3 4 4 7 1 1 1 2 1 3 2 2 2 4 4 6 0 2 1 3 1 4 1 2 2 3 2 5 4 8 6 16 8 24 0 1 0 1 1 1 0 3 1 6 2 9 0 1 0 2 0 2 1 3 2 6 2 9 0 0 0 1 0 1 3 13 4 27 4 41 0 133-108 241-240 241z m222-279l-49 8c-14-82-87-145-173-145-97 0-176 79-176 176 0 97 79 176 176 176 97 0 176-79 176-176l50 0c0-13-1-26-4-39z"/>
<glyph unicode="&#42;" d="M256 496c-132 0-240-108-240-240 0-132 108-240 239-240 0 0 0 0 1 0 4 0 8 0 12 0 1 0 2 0 3 0 4 0 6 1 9 1 2 0 3 0 4 0 2 1 5 1 8 2 1 0 2 0 3 0 3 1 6 1 8 1 1 0 2 1 3 1 3 1 6 1 9 2 1 0 1 1 2 1 4 0 7 2 9 2 1 0 2 1 2 1 4 1 7 2 10 3 1 0 1 0 1 1 3 1 7 2 10 4 0 0 0 0 0 0 50 21 92 58 118 106 0 0 0 1 0 2 1 2 3 5 5 8 0 1 1 2 1 3 1 3 2 5 3 7 1 2 1 3 2 5 1 2 1 4 2 6 1 1 1 3 2 5 1 2 1 3 1 5 1 2 1 4 2 7 1 1 1 2 1 4 1 2 2 5 2 7 0 2 1 2 1 4 1 2 1 5 2 8 0 0 0 1 1 2 0 3 1 6 1 9 0 1 0 1 0 2 0 3 0 7 1 10 1 7 1 14 1 21 1 132-107 240-239 240z m225-260l-50 5c-7-90-83-161-175-161-97 0-176 79-176 176 0 97 79 176 176 176 97 0 176-79 176-176l50 0c0-6-1-13-1-20z"/>
<glyph unicode="&#43;" d="M256 432c97 0 176-79 176-176 0-97-79-176-176-176-97 0-176 79-176 176 0 97 79 176 176 176m0 64c-132 0-240-108-240-240 0-132 108-240 240-240 132 0 240 108 240 240 0 132-108 240-240 240z"/>
</font>
</defs>
</svg>
